<svg xmlns="http://www.w3.org/2000/svg" xml:space="preserve" style="enable-background:new 0 0 50 50" viewBox="0 0 50 50"><ellipse cx="18" cy="15.9" rx="4.3" ry="2.9" transform="rotate(-67.87 17.95 15.88)"/><path d="M46.4 32.6c1.4 0 2.6-1.1 2.6-2.4 0-1.3-1.2-2.4-2.6-2.4h-6.9c-.1-1-.3-1.9-.6-2.9l6.5-4.3c1.2-.8 1.5-2.3.6-3.4-.8-1.1-2.5-1.4-3.6-.6l-5.6 3.6c-.1-.2-.2-.4-.4-.6.1-.4.1-.8.1-1.3 0-3.1-1.4-5.9-3.7-7.9l3.9-6.2c.4-.7.2-1.5-.6-1.9H36c-.6-.2-1.6 0-2 .7l-3.7 5.9c-3.6-2.2-9.2-1.8-11.9-.3l-3.2-5.4c-.5-.9-1.7-1.2-2.6-.7h-.1c-.4.3-.8.7-.9 1.1-.1.5-.1 1 .2 1.4l3.4 5.7c-2 2.3-3.2 5-3.2 8 0 .3 0 .7.1 1.1l-4.7-3.2c-1.3-.9-3.1-.6-4 .7-.4.6-.6 1.4-.5 2.1.1.6.5 1.3 1.2 1.7l5.7 4c-.2.7-.3 1.4-.4 2.1h-6a2.9 2.9 0 0 0 0 5.8h5.9c.1.8.3 1.5.5 2.3L4 38.4c-.7.4-1.2 1-1.4 1.7-.2.7-.1 1.5.3 2.2.8 1.4 2.6 1.8 3.9 1l5.2-3c6.5 9.4 17.3 8.9 24.6-.2l6.1 3.3c1.2.7 2.8.3 3.6-.9.7-1.2.3-2.6-1-3.3l-6.6-3.5c.3-1 .5-2 .7-3.1h7zM23.8 46.1c-3.7 0-8.6-2.6-11.1-6.6l-.2-.4-6 3.4c-.9.5-2.1.2-2.6-.7-.3-.4-.3-.9-.2-1.4.1-.5.4-.9.9-1.1l6.4-3.6-.1-.4c-.3-.9-.5-1.9-.6-2.9l-.1-.4H3.4c-1.1 0-1.9-.8-1.9-1.9s.9-1.9 1.9-1.9h6.8l.1-.4c.1-1 .3-1.9.5-2.7l.1-.3-6.3-4.4a2 2 0 0 1-.8-1.2c-.1-.5 0-1 .3-1.4a2 2 0 0 1 2.7-.4l5.1 3.6.4.3.3-.4c.1-.2.2-.4.3-.5l.1-.2v-1.5c0-2.8 1.1-5.4 3.2-7.4l.3-.3-3.8-6.4c-.1-.2-.2-.4-.1-.7.1-.2.2-.4.4-.5h.1c.4-.2 1-.1 1.2.3L18 9.9l.4-.2c1.5-.8 4.2-1.3 5.4-1.2v37.6zm8.5-26.6c-1.5.7-3.5-.4-4.5-2.6-1-2.1-.7-4.4.8-5.1 1.5-.7 3.5.4 4.5 2.6 1 2.1.7 4.4-.8 5.1z"/></svg>